<svg width="90" height="32" viewBox="0 0 90 32" fill="none" xmlns="http://www.w3.org/2000/svg">
<path fill-rule="evenodd" clip-rule="evenodd" d="M61.1543 3.6492H56.4476V2.68708C56.4476 2.1259 55.9963 1.6709 55.4393 1.6709C54.8827 1.6709 54.431 2.1259 54.431 2.68708V3.6492H43.5178V2.68708C43.5178 2.1259 43.0665 1.6709 42.5099 1.6709C41.9529 1.6709 41.5016 2.1259 41.5016 2.68708V3.6492H36.7873C36.2311 3.6492 35.78 4.10388 35.78 4.66473C35.78 5.22527 36.2311 5.67995 36.7873 5.67995H39.8863H41.9025H56.0464H58.063H61.1543C61.7107 5.67995 62.1614 5.22527 62.1614 4.66473C62.1614 4.10388 61.7107 3.6492 61.1543 3.6492ZM41.0185 16.5065C41.0185 17.0671 40.5674 17.5217 40.0112 17.5217C39.4548 17.5217 39.0042 17.0671 39.0042 16.5065V8.63792C39.0042 8.07706 39.4548 7.62238 40.0112 7.62238C40.5674 7.62238 41.0185 8.07706 41.0185 8.63792V16.5065ZM44.696 21.5934H40.2716C40.0228 21.5934 39.8213 21.7967 39.8213 22.0474V28.1501H44.696V21.5934ZM51.2317 28.1501H46.7095V21.5934H51.2317V28.1501ZM53.2463 28.1501H58.1207V22.0474C58.1207 21.7967 57.9191 21.5934 57.6704 21.5934H53.2463V28.1501ZM60.1356 21.6541V28.1498H61.1545C61.7108 28.1498 62.1617 28.6046 62.1617 29.1654C62.1617 29.7263 61.7108 30.1807 61.1545 30.1807H36.7874C36.2314 30.1807 35.7805 29.7263 35.7805 29.1654C35.7805 28.6046 36.2314 28.1498 36.7874 28.1498H37.8067V21.6541C37.8067 20.4988 38.7355 19.5625 39.8812 19.5625H58.0608C59.2067 19.5625 60.1356 20.4988 60.1356 21.6541ZM45.7067 17.5362C46.263 17.5362 46.7137 17.0816 46.7137 16.5211V8.65241C46.7137 8.09155 46.263 7.63687 45.7067 7.63687C45.1504 7.63687 44.6997 8.09155 44.6997 8.65241V16.5211C44.6997 17.0816 45.1504 17.5362 45.7067 17.5362ZM59.3944 12.8743C59.3944 12.1545 58.8154 11.5709 58.1014 11.5709H52.4484L54.6152 9.38833C55.2517 8.74734 54.8013 7.65039 53.9019 7.65039C53.634 7.65039 53.3772 7.75754 53.1879 7.94873L50.0897 11.0572C49.762 11.3862 49.5776 11.8331 49.5776 12.2991C49.5776 13.0189 50.1566 13.6022 50.8705 13.6022H56.5304L54.3674 15.7832C53.7319 16.4238 54.182 17.5194 55.0808 17.5194C55.3483 17.5194 55.6051 17.4123 55.794 17.2214L58.8835 14.1155C59.2106 13.787 59.3944 13.3407 59.3944 12.8753V12.8743ZM77.2201 25.8389V21.6901C77.2201 20.3636 76.1533 19.2882 74.8375 19.2882C73.5215 19.2882 72.4551 20.3636 72.4551 21.6901V25.8389C72.4551 27.1656 73.5215 28.241 74.8375 28.241C76.1533 28.241 77.2201 27.1656 77.2201 25.8389ZM79.1833 9.71573C79.1833 10.2525 78.7517 10.688 78.2193 10.688H75.7768V17.4287C77.7173 17.8615 79.1694 19.6033 79.1694 21.6898V25.8386C79.1694 28.2504 77.23 30.2056 74.8374 30.2056C72.4451 30.2056 70.5058 28.2504 70.5058 25.8386V21.6898C70.5058 19.6216 71.9334 17.8932 73.8485 17.4416V10.688H71.4061C70.8733 10.688 70.4417 10.2525 70.4417 9.71573C70.4417 9.17898 70.8733 8.74352 71.4061 8.74352H73.8485V2.64281C73.8485 2.10605 74.2802 1.67092 74.8126 1.67092C75.3452 1.67092 75.7768 2.10605 75.7768 2.64281V8.74352H78.2193C78.7517 8.74352 79.1833 9.17898 79.1833 9.71573ZM67.6289 3.23929C67.3936 2.73086 66.7944 2.51134 66.2904 2.74813C65.7863 2.98524 65.5684 3.58941 65.8032 4.09751L67.0237 6.73634C67.2589 7.24443 67.8582 7.4646 68.3622 7.22749C68.8665 6.99039 69.0846 6.38653 68.8494 5.87812L67.6289 3.23929ZM66.2904 9.44453C66.7944 9.20741 67.3936 9.42726 67.6289 9.93569L68.8494 12.5746C69.0846 13.083 68.8665 13.6868 68.3622 13.9239C67.8582 14.161 67.2589 13.9409 67.0237 13.4327L65.8032 10.7939C65.5684 10.2858 65.7863 9.68164 66.2904 9.44453ZM67.326 16.8807C66.7698 16.8807 66.3191 17.3353 66.3191 17.8962V29.1906C66.3191 29.7514 66.7698 30.2062 67.326 30.2062C67.8824 30.2062 68.3334 29.7514 68.3334 29.1906V17.8962C68.3334 17.3353 67.8824 16.8807 67.326 16.8807ZM88.0501 13.5268V16.4108H83.0684V13.5268H88.0501ZM88.0501 6.84624C88.0501 5.4594 86.9348 4.33509 85.5592 4.33509C84.1835 4.33509 83.0684 5.4594 83.0684 6.84624V11.5817H88.0501V6.84624ZM89.9991 26.2492C89.9991 26.2549 89.9978 26.2591 89.9974 26.2646C89.9976 26.2683 89.9982 26.2719 89.9987 26.2757C89.9993 26.28 90.0001 26.2844 90.0001 26.289C90.0001 28.6871 89.1768 30.1632 87.1315 30.158C86.592 30.1564 86.1461 29.7166 86.1546 29.1724C86.1616 28.6917 86.54 28.224 87.1315 28.1872C88.0471 28.1303 88.0464 27.3829 88.0456 26.3829C88.0456 26.3519 88.0454 26.3206 88.0454 26.289C88.0454 26.2804 88.0467 26.2722 88.0478 26.264C88.0487 26.2578 88.0496 26.2517 88.05 26.2454V18.3549H83.0683V29.1805C83.0683 29.7235 82.6318 30.1632 82.0936 30.1632C81.5554 30.1632 81.1189 29.7235 81.1189 29.1805V6.84694C81.1189 4.37486 83.1067 2.37083 85.5591 2.37083C88.0112 2.37083 89.9991 4.37486 89.9991 6.84694V26.2492Z" fill="#2B2F3B"/>
<path fill-rule="evenodd" clip-rule="evenodd" d="M14.55 20.0575C12.675 20.0575 10.9917 19.2416 9.82227 17.945C8.79136 16.7983 8.16235 15.2776 8.16235 13.6093C8.16235 10.0487 11.0228 7.16367 14.55 7.16367C16.8555 7.16367 18.874 8.39482 19.993 10.2415C19.9953 10.2442 19.9975 10.2461 19.9975 10.2487C20.593 11.229 20.9351 12.3782 20.9351 13.6093C20.9351 17.1698 18.0773 20.0575 14.55 20.0575ZM28.592 27.006C26.8937 25.0895 25.3972 22.8787 25.3934 14.7531C25.4011 14.5659 25.4018 14.5596 25.4018 14.37C25.4018 11.0525 24.2184 8.04529 22.3003 5.85365C22.4451 5.66604 22.5937 5.44295 22.741 5.19443C22.7601 5.16349 22.7768 5.13254 22.7934 5.10161C22.9668 4.80522 23.1381 4.47594 23.2974 4.12516C23.4543 3.77894 23.5968 3.41871 23.7183 3.06044C23.7325 3.01517 23.7493 2.97022 23.7609 2.92462C23.8346 2.69305 23.8985 2.4618 23.9513 2.23968C24.1938 1.187 24.1483 0.284811 23.5449 0.0294626C23.202 -0.116123 22.7884 0.294266 22.3081 0.898112C22.2916 0.919603 22.2726 0.941106 22.2535 0.96488C22.2322 0.991261 22.2109 1.01764 22.1892 1.04598C21.8755 1.4518 21.5285 1.927 21.1505 2.36604C21.1219 2.39959 21.0934 2.43281 21.065 2.46636C21.0482 2.48525 21.0317 2.50447 21.0149 2.52369C20.6017 2.98911 20.1525 3.40308 19.6677 3.64312C18.1576 2.74027 16.434 2.2286 14.6046 2.2286C12.7282 2.2286 10.9636 2.76665 9.42613 3.71347C8.88177 3.48972 8.38101 3.03829 7.9242 2.52369C7.9074 2.50447 7.89091 2.48525 7.87444 2.46636C7.84568 2.43281 7.81725 2.39959 7.78851 2.36604C7.41051 1.927 7.06354 1.4518 6.74985 1.04598C6.72852 1.01764 6.70688 0.991261 6.68556 0.96488C6.66649 0.941106 6.64776 0.919603 6.63096 0.898112C6.15056 0.294266 5.73704 -0.116123 5.39458 0.0294626C4.79077 0.284811 4.74554 1.187 4.98784 2.23968C5.04017 2.4618 5.10446 2.69305 5.17812 2.92462C5.19008 2.97022 5.20655 3.01517 5.22077 3.06044C5.34224 3.41871 5.48504 3.77894 5.64173 4.12516C5.801 4.47594 5.97222 4.80522 6.14603 5.10161C6.1625 5.13254 6.17899 5.16349 6.19805 5.19443C6.39027 5.51883 6.58475 5.79959 6.76988 6.01552C4.93389 8.19219 3.80735 11.1333 3.80735 14.37C3.80735 14.628 3.79379 14.7195 3.80767 14.9736C3.77504 22.9298 2.18878 25.1058 0.504962 27.006C-0.702341 28.3684 0.324694 31.2294 2.84493 29.9526C7.9242 27.3796 9.10824 32.1553 14.5422 31.9961C19.9762 31.8368 21.0149 27.3796 26.2521 29.9526C28.7875 31.1987 29.7991 28.3684 28.592 27.006Z" fill="#5475E9"/>
<path fill-rule="evenodd" clip-rule="evenodd" d="M20.4308 12.6741C20.4308 14.4766 18.9837 15.9373 17.1982 15.9373C15.4129 15.9373 13.9656 14.4766 13.9656 12.6741C13.9656 10.8717 15.4129 9.41064 17.1982 9.41064C18.9837 9.41064 20.4308 10.8717 20.4308 12.6741Z" fill="#2B2F3B"/>
</svg>
